<svg width="64" height="54" viewBox="0 0 64 54" fill="none" xmlns="http://www.w3.org/2000/svg">
<path d="M62.4227 11.507L62.4249 11.5082C62.4338 11.5128 62.4664 11.5345 62.4873 11.6013C62.5083 11.6685 62.5027 11.739 62.4753 11.7962L62.4726 11.8019L56.7433 23.8675L56.7429 23.8684C56.7264 23.9033 56.7091 23.9229 56.6975 23.9334C56.6853 23.9444 56.6756 23.9489 56.6707 23.9507C56.6684 23.9515 56.6669 23.9518 56.6661 23.9519C56.6645 23.9515 56.661 23.9503 56.6553 23.9472L56.646 23.9423L56.6367 23.9374L50.9787 21.0166C48.7928 19.8855 46.4897 21.6459 46.4897 23.8676V50.625C46.4897 51.7398 45.657 52.5 44.7901 52.5H19.1935C18.3266 52.5 17.4939 51.7398 17.4939 50.625V23.8781C17.4939 21.6377 15.1838 19.8996 13.0048 21.0272L7.34688 23.948L7.34216 23.9504C7.3316 23.9559 7.32725 23.9559 7.32688 23.9559C7.32531 23.956 7.32068 23.9561 7.31285 23.9533C7.2998 23.9487 7.26681 23.9322 7.23848 23.8744C7.23816 23.8737 7.23784 23.873 7.23752 23.8724L1.52458 11.8095C1.52431 11.8089 1.52405 11.8083 1.52378 11.8078C1.49665 11.7486 1.49202 11.6779 1.51338 11.6106C1.53405 11.5454 1.56795 11.5148 1.59027 11.5021L19.9539 1.90143C22.5545 4.74796 27.0766 6.47813 32.0018 6.47813C36.9269 6.47813 41.4491 4.74796 44.0496 1.90143L62.4227 11.507Z" stroke="black" stroke-width="3"/>
</svg>
